<svg xmlns="http://www.w3.org/2000/svg" viewBox="0 0 500 500" width="500" height="500">
  <defs>
    <radialGradient id="bgGlowSingleZero" cx="50%" cy="45%" r="65%">
      <stop offset="0%" stop-color="#FFFFFF"/>
      <stop offset="60%" stop-color="#ECFDF5"/>
      <stop offset="100%" stop-color="#D1FAE5"/>
    </radialGradient>
    <linearGradient id="acaiGradSZ" x1="0%" y1="0%" x2="100%" y2="100%">
      <stop offset="0%" stop-color="#4C1D95"/>
      <stop offset="50%" stop-color="#3B0764"/>
      <stop offset="100%" stop-color="#1E0226"/>
    </linearGradient>
    <linearGradient id="cupGlassSZ" x1="0%" y1="0%" x2="100%" y2="0%">
      <stop offset="0%" stop-color="#FFFFFF" stop-opacity="0.4"/>
      <stop offset="25%" stop-color="#FFFFFF" stop-opacity="0.1"/>
      <stop offset="70%" stop-color="#FFFFFF" stop-opacity="0.0"/>
      <stop offset="95%" stop-color="#FFFFFF" stop-opacity="0.35"/>
    </linearGradient>
    <filter id="shadowSingleZ" x="-15%" y="-15%" width="130%" height="135%">
      <feGaussianBlur stdDeviation="9" result="blur"/>
      <feColorMatrix type="matrix" values="0 0 0 0 0.05   0 0 0 0 0.15   0 0 0 0 0.1  0 0 0 0.35 0"/>
      <feBlend in="SourceGraphic" in2="blur" mode="normal"/>
    </filter>
  </defs>

  <rect width="500" height="500" rx="24" fill="url(#bgGlowSingleZero)"/>
  <ellipse cx="250" cy="430" rx="140" ry="22" fill="#064E3B" opacity="0.2"/>

  <!-- Centered Single Cup Zero -->
  <g transform="translate(190, 115)" filter="url(#shadowSingleZ)">
    <!-- Cup Body -->
    <path d="M 12 60 L 108 60 L 92 310 L 28 310 Z" fill="url(#acaiGradSZ)"/>

    <!-- Healthy layers (oat, chia) -->
    <path d="M 22 120 Q 60 135 98 120 L 95 145 Q 60 160 25 145 Z" fill="#F9FAFB" opacity="0.9"/>
    <path d="M 25 200 Q 60 215 95 200 L 92 225 Q 60 240 28 225 Z" fill="#F3F4F6" opacity="0.85"/>

    <!-- Plastic Glass shine -->
    <path d="M 12 60 L 108 60 L 92 310 L 28 310 Z" fill="url(#cupGlassSZ)"/>
    <path d="M 22 65 L 32 65 L 40 305 L 30 305 Z" fill="#FFFFFF" opacity="0.3"/>

    <!-- Rim -->
    <ellipse cx="60" cy="60" rx="48" ry="9" fill="#E2E8F0" stroke="#CBD5E1" stroke-width="1.5"/>

    <!-- Açai Mound -->
    <path d="M 10 60 Q 60 -5 110 60 Z" fill="#2E0854"/>
    <ellipse cx="60" cy="48" rx="45" ry="18" fill="#4C1D95"/>

    <!-- Topping: Fresh Kiwi -->
    <g transform="translate(18, 20) scale(0.85)">
      <circle cx="20" cy="20" r="16" fill="#84CC16" stroke="#4D7C0F" stroke-width="2"/>
      <circle cx="20" cy="20" r="7" fill="#ECFCCB"/>
      <circle cx="16" cy="15" r="1" fill="#14532D"/>
      <circle cx="24" cy="15" r="1" fill="#14532D"/>
      <circle cx="25" cy="24" r="1" fill="#14532D"/>
      <circle cx="15" cy="24" r="1" fill="#14532D"/>
    </g>

    <!-- Topping: Fresh Strawberry -->
    <g transform="translate(58, 12) scale(0.85)">
      <path d="M20,10 C35,10 40,25 35,45 C30,58 20,68 20,68 C20,68 10,58 5,45 C0,25 5,10 20,10 Z" fill="#EF4444"/>
      <circle cx="16" cy="28" r="1.5" fill="#FEF08A"/>
      <circle cx="25" cy="34" r="1.5" fill="#FEF08A"/>
      <path d="M14,12 C10,5 5,8 8,14 C12,12 18,12 20,10 C22,12 28,12 32,14 C35,8 30,5 26,12 Z" fill="#22C55E"/>
    </g>

    <!-- Seeds and almond flakes -->
    <circle cx="45" cy="50" r="1.5" fill="#111827"/>
    <circle cx="52" cy="53" r="1.5" fill="#111827"/>
    <ellipse cx="82" cy="48" rx="4" ry="2" fill="#FDE68A"/>
    <ellipse cx="94" cy="52" rx="3.5" ry="1.8" fill="#FDE68A"/>
  </g>

  <!-- Tag (Top Left) -->
  <g transform="translate(24, 24)">
    <rect width="170" height="50" rx="25" fill="#047857" filter="url(#shadowSingleZ)"/>
    <text x="85" y="24" fill="#FFFFFF" font-family="system-ui, -apple-system, sans-serif" font-size="11" font-weight="900" text-anchor="middle">
      INDIVIDUAL ZERO
    </text>
    <text x="85" y="40" fill="#D1FAE5" font-family="system-ui, -apple-system, sans-serif" font-size="10" font-weight="800" text-anchor="middle">
      🍃 100% PURO &amp; FIT
    </text>
  </g>

  <!-- 9 Complementos Grátis Badge (Bottom Right) -->
  <g transform="translate(285, 418)">
    <rect width="190" height="42" rx="21" fill="#059669" stroke="#FFFFFF" stroke-width="2" filter="url(#shadowSingleZ)"/>
    <text x="95" y="26" fill="#FFFFFF" font-family="system-ui, -apple-system, sans-serif" font-size="12" font-weight="800" text-anchor="middle">
      + 9 COMPLEMENTOS GRÁTIS
    </text>
  </g>
</svg>
